<?xml version="1.0" encoding="iso-8859-1"?>
<!-- Generator: Adobe Illustrator 19.0.0, SVG Export Plug-In . SVG Version: 6.00 Build 0)  -->
<svg version="1.1" id="Layer_1" xmlns="http://www.w3.org/2000/svg" xmlns:xlink="http://www.w3.org/1999/xlink" x="0px" y="0px"
	 viewBox="0 0 512 512" style="enable-background:new 0 0 512 512;" xml:space="preserve">
<path style="fill:#D69741;" d="M434.087,102.4c12.295,0,22.261,9.966,22.261,22.261v57.878c0,12.295-9.966,22.261-22.261,22.261
	c12.295,0,22.261,9.966,22.261,22.261v57.878c0,12.295-9.966,22.261-22.261,22.261c12.295,0,22.261,9.966,22.261,22.261v57.878
	c0,12.295-9.966,22.261-22.261,22.261c12.295,0,22.261,9.966,22.261,22.261v57.878c0,12.295-9.966,22.261-22.261,22.261H200.348
	c-12.295,0-22.261-9.966-22.261-22.261v-57.878c0-12.295,9.966-22.261,22.261-22.261c-12.295,0-22.261-9.966-22.261-22.261v-57.878
	c0-12.295,9.966-22.261,22.261-22.261c-12.295,0-22.261-9.966-22.261-22.261v-57.878c0-12.295,9.966-22.261,22.261-22.261
	c-12.295,0-22.261-9.966-22.261-22.261v-57.878c0-12.295,9.966-22.261,22.261-22.261c-12.295,0-22.261-9.966-22.261-22.261V22.261
	C178.087,9.966,188.053,0,200.348,0h233.739c12.295,0,22.261,9.966,22.261,22.261v57.878
	C456.348,92.434,446.382,102.4,434.087,102.4z"/>
<path style="fill:#B25D26;" d="M456.348,227.074v57.878c0,12.295-9.966,22.261-22.261,22.261H200.348
	c-12.295,0-22.261-9.966-22.261-22.261v-22.261h44.522h94.609h94.609c22.803,0,41.59-17.146,44.2-39.248
	C456.221,224.628,456.348,225.834,456.348,227.074z M456.026,18.63c-2.61,22.102-21.397,39.248-44.2,39.248H222.609
	c-22.803,0-41.59-17.146-44.2-39.248c-0.195,1.184-0.322,2.392-0.322,3.631v57.878c0,12.295,9.966,22.261,22.261,22.261h233.739
	c12.295,0,22.261-9.966,22.261-22.261V22.261C456.348,21.022,456.221,19.814,456.026,18.63z M411.826,161.683H222.609
	c-22.803,0-41.59-17.146-44.2-39.248c-0.195,1.184-0.322,2.391-0.322,3.631v57.878c0,12.295,9.966,22.261,22.261,22.261h233.739
	c12.295,0,22.261-9.966,22.261-22.261v-57.878c0-1.239-0.127-2.446-0.322-3.631C453.416,144.535,434.629,161.683,411.826,161.683z
	 M411.826,365.37H222.609c-22.803,0-41.59-17.146-44.2-39.248c-0.195,1.184-0.322,2.391-0.322,3.631v57.878
	c0,12.295,9.966,22.261,22.261,22.261h233.739c12.295,0,22.261-9.966,22.261-22.261v-57.878c0-1.239-0.127-2.446-0.322-3.631
	C453.416,348.222,434.629,365.37,411.826,365.37z M411.826,467.478H222.609c-22.803,0-41.59-17.146-44.2-39.248
	c-0.195,1.184-0.322,2.392-0.322,3.631v57.878c0,12.295,9.966,22.261,22.261,22.261h233.739c12.295,0,22.261-9.966,22.261-22.261
	v-57.878c0-1.239-0.127-2.446-0.322-3.631C453.416,450.332,434.629,467.478,411.826,467.478z"/>
<path style="fill:#E8BA52;" d="M322.783,378.435c0,73.766-59.799,133.565-133.565,133.565S55.652,452.201,55.652,378.435
	S115.452,244.87,189.217,244.87S322.783,304.669,322.783,378.435z"/>
<path style="fill:#FED766;" d="M300.522,378.435c0,61.471-49.833,111.304-111.304,111.304S77.913,439.906,77.913,378.435
	S127.746,267.13,189.217,267.13S300.522,316.964,300.522,378.435z"/>
<path style="fill:#FFED80;" d="M252.82,378.435c0,35.127-28.476,63.603-63.603,63.603s-63.603-28.476-63.603-63.603
	s28.476-63.603,63.603-63.603S252.82,343.308,252.82,378.435z"/>
<path style="fill:#AD8653;" d="M261.168,378.435c0-31.167-19.925-57.761-47.702-67.735v-21.308c0-4.61-3.738-8.348-8.348-8.348
	s-8.348,3.738-8.348,8.348v17.491c-2.483-0.26-5.002-0.398-7.553-0.398c-2.551,0-5.07,0.138-7.553,0.398v-17.491
	c0-4.61-3.738-8.348-8.348-8.348s-8.348,3.738-8.348,8.348v21.308c-27.777,9.974-47.702,36.568-47.702,67.735
	s19.925,57.761,47.702,67.735v21.308c0,4.61,3.738,8.348,8.348,8.348s8.348-3.738,8.348-8.348v-17.491
	c2.483,0.26,5.002,0.398,7.553,0.398c2.551,0,5.07-0.138,7.553-0.398v17.491c0,4.61,3.738,8.348,8.348,8.348
	s8.348-3.738,8.348-8.348V446.17C241.243,436.196,261.168,409.602,261.168,378.435z M133.963,378.435
	c0-21.772,12.662-40.638,31.006-49.636v99.273C146.625,419.073,133.963,400.207,133.963,378.435z M189.217,433.69
	c-2.563,0-5.081-0.19-7.553-0.53V323.709c2.471-0.339,4.99-0.53,7.553-0.53c2.563,0,5.081,0.19,7.553,0.53V433.16
	C194.298,433.499,191.781,433.69,189.217,433.69z M213.466,428.071v-99.273c18.344,8.998,31.006,27.864,31.006,49.636
	S231.81,419.073,213.466,428.071z"/>
<g>
</g>
<g>
</g>
<g>
</g>
<g>
</g>
<g>
</g>
<g>
</g>
<g>
</g>
<g>
</g>
<g>
</g>
<g>
</g>
<g>
</g>
<g>
</g>
<g>
</g>
<g>
</g>
<g>
</g>
</svg>
